#N canvas 0 0 640 720 12;
#X obj 20 40 ambitap.encode~ 3;
#X obj 20 70 ambitap.rotate~ 3;
#X obj 20 100 ambitap.decode~ 3 quad;
#X obj 20 130 ambitap.binaural~ 3;
#X obj 20 160 ambitap.mirror~ 3;
#X obj 20 190 ambitap.format~ 3;
#X obj 20 220 ambitap.vmic~ 3;
#X obj 20 250 ambitap.directional~ 3;
#X obj 20 280 ambitap.doppler~ 3;
#X obj 20 310 ambitap.compress~ 3;
#X obj 20 340 ambitap.energyvec~;
#X obj 20 370 ambitap.bed2hoa~ 3 quad;
#X obj 20 400 ambitap.distance~ 3;
#X obj 20 430 ambitap.panbin~;
#X obj 20 460 ambitap.xtc~;
#X obj 20 490 ambitap.room~ 3;
#X obj 20 560 loadbang;
#X msg 20 590 \; pd dsp 1;
#X obj 20 620 del 800;
#X msg 20 650 \; pd quit;
#X connect 16 0 17 0;
#X connect 16 0 18 0;
#X connect 18 0 19 0;
